STARTFONT 2.1
COMMENT $XConsortium: lubR08.bdf,v 1.9 94/04/02 16:10:49 gildea Exp $
COMMENT  (c) Copyright Bigelow & Holmes 1986, 1985. Lucida is a registered
COMMENT  trademark of Bigelow & Holmes. See LEGAL NOTICE file for terms 
COMMENT  of the license. 
COMMENT  
COMMENT  Translation to ISO8859-2 by Cub Soft;  Petr.Kolar@vslib.cz
COMMENT  
FONT -B&H-LucidaBright-Medium-R-Normal--8-80-75-75-P-45-ISO8859-2
SIZE 8 72 72
FONTBOUNDINGBOX 13 11 -4 -3
STARTPROPERTIES 20
COMMENT Begin LogicalFontDescription
FONTNAME_REGISTRY ""
FOUNDRY "B&H"
FAMILY_NAME "LucidaBright"
WEIGHT_NAME "Medium"
SLANT "R"
SETWIDTH_NAME "Normal"
ADD_STYLE_NAME ""
PIXEL_SIZE 8
POINT_SIZE 80
RESOLUTION_X 75
RESOLUTION_Y 75
SPACING "P"
AVERAGE_WIDTH 45
CHARSET_REGISTRY "ISO8859"
CHARSET_ENCODING "2"
COMMENT END LogicalFontDescription
FONT_ASCENT 7
FONT_DESCENT 2
DEFAULT_CHAR 0
COPYRIGHT "Copyright Bigelow & Holmes 1986, 1985., Copyright 1996 Cub Soft"
FACE_NAME "Lucida Bright"
ENDPROPERTIES
CHARS 191
STARTCHAR space
ENCODING 32
SWIDTH 333 0
DWIDTH 2 0
BBX 1 1 0 0
BITMAP
00
ENDCHAR
STARTCHAR exclam
ENCODING 33
SWIDTH 265 0
DWIDTH 2 0
BBX 1 6 1 0
BITMAP
80
80
80
80
00
80
ENDCHAR
STARTCHAR quotedbl
ENCODING 34
SWIDTH 386 0
DWIDTH 3 0
BBX 2 2 1 4
BITMAP
c0
c0
ENDCHAR
STARTCHAR numbersign
ENCODING 35
SWIDTH 608 0
DWIDTH 5 0
BBX 5 6 0 0
BITMAP
38
f8
50
f8
60
e0
ENDCHAR
STARTCHAR dollar
ENCODING 36
SWIDTH 608 0
DWIDTH 5 0
BBX 3 7 1 -1
BITMAP
60
e0
c0
60
e0
c0
40
ENDCHAR
STARTCHAR percent
ENCODING 37
SWIDTH 675 0
DWIDTH 5 0
BBX 4 6 1 0
BITMAP
d0
e0
e0
70
70
b0
ENDCHAR
STARTCHAR ampersand
ENCODING 38
SWIDTH 690 0
DWIDTH 6 0
BBX 5 6 0 0
BITMAP
60
60
60
d8
b0
78
ENDCHAR
STARTCHAR apostrophe
ENCODING 39
SWIDTH 265 0
DWIDTH 2 0
BBX 1 2 1 4
BITMAP
80
80
ENDCHAR
STARTCHAR parenleft
ENCODING 40
SWIDTH 316 0
DWIDTH 3 0
BBX 2 8 0 -2
BITMAP
40
80
80
80
80
80
80
40
ENDCHAR
STARTCHAR parenright
ENCODING 41
SWIDTH 316 0
DWIDTH 3 0
BBX 2 8 0 -2
BITMAP
80
40
40
40
40
40
40
80
ENDCHAR
STARTCHAR asterisk
ENCODING 42
SWIDTH 470 0
DWIDTH 4 0
BBX 3 4 0 2
BITMAP
c0
60
c0
20
ENDCHAR
STARTCHAR plus
ENCODING 43
SWIDTH 608 0
DWIDTH 5 0
BBX 5 5 0 0
BITMAP
20
20
f8
20
20
ENDCHAR
STARTCHAR comma
ENCODING 44
SWIDTH 265 0
DWIDTH 2 0
BBX 1 3 1 -2
BITMAP
80
80
80
ENDCHAR
STARTCHAR minus
ENCODING 45
SWIDTH 608 0
DWIDTH 5 0
BBX 5 1 0 2
BITMAP
f8
ENDCHAR
STARTCHAR period
ENCODING 46
SWIDTH 265 0
DWIDTH 2 0
BBX 1 1 1 0
BITMAP
80
ENDCHAR
STARTCHAR slash
ENCODING 47
SWIDTH 512 0
DWIDTH 4 0
BBX 4 8 0 -2
BITMAP
10
10
20
20
40
40
80
80
ENDCHAR
STARTCHAR zero
ENCODING 48
SWIDTH 608 0
DWIDTH 5 0
BBX 4 6 0 0
BITMAP
60
90
90
90
90
60
ENDCHAR
STARTCHAR one
ENCODING 49
SWIDTH 608 0
DWIDTH 5 0
BBX 3 6 1 0
BITMAP
c0
40
40
40
40
e0
ENDCHAR
STARTCHAR two
ENCODING 50
SWIDTH 608 0
DWIDTH 5 0
BBX 3 6 1 0
BITMAP
e0
a0
20
40
80
e0
ENDCHAR
STARTCHAR three
ENCODING 51
SWIDTH 608 0
DWIDTH 5 0
BBX 3 6 1 0
BITMAP
e0
a0
40
60
a0
c0
ENDCHAR
STARTCHAR four
ENCODING 52
SWIDTH 608 0
DWIDTH 5 0
BBX 5 6 0 0
BITMAP
30
70
d0
f8
10
38
ENDCHAR
STARTCHAR five
ENCODING 53
SWIDTH 608 0
DWIDTH 5 0
BBX 3 6 1 0
BITMAP
e0
80
c0
20
a0
c0
ENDCHAR
STARTCHAR six
ENCODING 54
SWIDTH 608 0
DWIDTH 5 0
BBX 4 6 0 0
BITMAP
70
90
e0
90
90
60
ENDCHAR
STARTCHAR seven
ENCODING 55
SWIDTH 608 0
DWIDTH 5 0
BBX 4 6 1 0
BITMAP
f0
10
20
40
c0
80
ENDCHAR
STARTCHAR eight
ENCODING 56
SWIDTH 608 0
DWIDTH 5 0
BBX 4 6 0 0
BITMAP
f0
90
50
b0
90
e0
ENDCHAR
STARTCHAR nine
ENCODING 57
SWIDTH 608 0
DWIDTH 5 0
BBX 4 6 0 0
BITMAP
60
90
90
70
90
e0
ENDCHAR
STARTCHAR colon
ENCODING 58
SWIDTH 265 0
DWIDTH 2 0
BBX 1 4 1 0
BITMAP
80
00
00
80
ENDCHAR
STARTCHAR semicolon
ENCODING 59
SWIDTH 265 0
DWIDTH 2 0
BBX 1 6 1 -2
BITMAP
80
00
00
80
80
80
ENDCHAR
STARTCHAR less
ENCODING 60
SWIDTH 608 0
DWIDTH 5 0
BBX 6 5 1 0
BITMAP
0c
38
e0
38
0c
ENDCHAR
STARTCHAR equal
ENCODING 61
SWIDTH 608 0
DWIDTH 5 0
BBX 5 2 0 1
BITMAP
f8
f8
ENDCHAR
STARTCHAR greater
ENCODING 62
SWIDTH 608 0
DWIDTH 5 0
BBX 6 5 0 0
BITMAP
c0
70
1c
70
c0
ENDCHAR
STARTCHAR question
ENCODING 63
SWIDTH 480 0
DWIDTH 4 0
BBX 3 6 0 0
BITMAP
e0
a0
40
40
40
40
ENDCHAR
STARTCHAR at
ENCODING 64
SWIDTH 873 0
DWIDTH 7 0
BBX 7 6 0 0
BITMAP
3c
56
ba
ae
f4
78
ENDCHAR
STARTCHAR A
ENCODING 65
SWIDTH 744 0
DWIDTH 6 0
BBX 6 6 0 0
BITMAP
20
30
50
78
88
cc
ENDCHAR
STARTCHAR B
ENCODING 66
SWIDTH 609 0
DWIDTH 5 0
BBX 5 6 0 0
BITMAP
f8
48
70
48
48
f8
ENDCHAR
STARTCHAR C
ENCODING 67
SWIDTH 695 0
DWIDTH 6 0
BBX 5 6 0 0
BITMAP
78
c8
80
80
c0
78
ENDCHAR
STARTCHAR D
ENCODING 68
SWIDTH 768 0
DWIDTH 6 0
BBX 6 6 0 0
BITMAP
f8
44
44
44
44
f8
ENDCHAR
STARTCHAR E
ENCODING 69
SWIDTH 566 0
DWIDTH 5 0
BBX 4 6 0 0
BITMAP
f0
50
60
40
50
f0
ENDCHAR
STARTCHAR F
ENCODING 70
SWIDTH 548 0
DWIDTH 4 0
BBX 4 6 0 0
BITMAP
f0
50
60
40
40
80
ENDCHAR
STARTCHAR G
ENCODING 71
SWIDTH 732 0
DWIDTH 6 0
BBX 6 6 0 0
BITMAP
78
c8
80
9c
c8
78
ENDCHAR
STARTCHAR H
ENCODING 72
SWIDTH 771 0
DWIDTH 6 0
BBX 6 6 0 0
BITMAP
fc
48
78
48
48
fc
ENDCHAR
STARTCHAR I
ENCODING 73
SWIDTH 325 0
DWIDTH 3 0
BBX 3 6 0 0
BITMAP
e0
40
40
40
40
e0
ENDCHAR
STARTCHAR J
ENCODING 74
SWIDTH 422 0
DWIDTH 3 0
BBX 3 8 0 -2
BITMAP
60
40
40
40
40
40
c0
c0
ENDCHAR
STARTCHAR K
ENCODING 75
SWIDTH 708 0
DWIDTH 6 0
BBX 5 6 0 0
BITMAP
e8
50
60
60
50
f8
ENDCHAR
STARTCHAR L
ENCODING 76
SWIDTH 557 0
DWIDTH 4 0
BBX 4 6 0 0
BITMAP
e0
40
40
40
50
f0
ENDCHAR
STARTCHAR M
ENCODING 77
SWIDTH 860 0
DWIDTH 7 0
BBX 7 6 0 0
BITMAP
c6
6c
6c
5c
54
ee
ENDCHAR
STARTCHAR N
ENCODING 78
SWIDTH 751 0
DWIDTH 6 0
BBX 6 6 0 0
BITMAP
dc
68
68
58
58
e8
ENDCHAR
STARTCHAR O
ENCODING 79
SWIDTH 777 0
DWIDTH 6 0
BBX 5 6 1 0
BITMAP
70
d8
88
88
d8
70
ENDCHAR
STARTCHAR P
ENCODING 80
SWIDTH 573 0
DWIDTH 5 0
BBX 5 6 0 0
BITMAP
f0
48
48
70
40
e0
ENDCHAR
STARTCHAR Q
ENCODING 81
SWIDTH 778 0
DWIDTH 6 0
BBX 6 8 1 -2
BITMAP
70
d8
88
88
d8
70
18
0c
ENDCHAR
STARTCHAR R
ENCODING 82
SWIDTH 679 0
DWIDTH 5 0
BBX 5 6 0 0
BITMAP
f0
50
50
60
50
f8
ENDCHAR
STARTCHAR S
ENCODING 83
SWIDTH 542 0
DWIDTH 4 0
BBX 3 6 1 0
BITMAP
e0
a0
c0
60
a0
e0
ENDCHAR
STARTCHAR T
ENCODING 84
SWIDTH 663 0
DWIDTH 5 0
BBX 5 6 0 0
BITMAP
f8
20
20
20
20
70
ENDCHAR
STARTCHAR U
ENCODING 85
SWIDTH 719 0
DWIDTH 6 0
BBX 6 6 0 0
BITMAP
fc
48
48
48
48
78
ENDCHAR
STARTCHAR V
ENCODING 86
SWIDTH 699 0
DWIDTH 6 0
BBX 6 6 0 0
BITMAP
cc
44
48
28
30
10
ENDCHAR
STARTCHAR W
ENCODING 87
SWIDTH 925 0
DWIDTH 7 0
BBX 7 6 0 0
BITMAP
d6
d2
5c
6c
6c
28
ENDCHAR
STARTCHAR X
ENCODING 88
SWIDTH 657 0
DWIDTH 5 0
BBX 5 6 0 0
BITMAP
c8
58
30
70
d0
d8
ENDCHAR
STARTCHAR Y
ENCODING 89
SWIDTH 678 0
DWIDTH 5 0
BBX 5 6 0 0
BITMAP
c8
58
70
20
20
70
ENDCHAR
STARTCHAR Z
ENCODING 90
SWIDTH 633 0
DWIDTH 5 0
BBX 4 6 0 0
BITMAP
f0
a0
20
40
50
f0
ENDCHAR
STARTCHAR bracketleft
ENCODING 91
SWIDTH 316 0
DWIDTH 3 0
BBX 2 8 0 -2
BITMAP
c0
80
80
80
80
80
80
c0
ENDCHAR
STARTCHAR backslash
ENCODING 92
SWIDTH 512 0
DWIDTH 4 0
BBX 4 8 0 -2
BITMAP
80
80
40
40
20
20
10
10
ENDCHAR
STARTCHAR bracketright
ENCODING 93
SWIDTH 316 0
DWIDTH 3 0
BBX 2 8 0 -2
BITMAP
c0
40
40
40
40
40
40
c0
ENDCHAR
STARTCHAR asciicircum
ENCODING 94
SWIDTH 608 0
DWIDTH 5 0
BBX 5 6 0 1
BITMAP
20
20
70
50
d8
88
ENDCHAR
STARTCHAR underscore
ENCODING 95
SWIDTH 500 0
DWIDTH 4 0
BBX 3 1 1 -1
BITMAP
e0
ENDCHAR
STARTCHAR grave
ENCODING 96
SWIDTH 602 0
DWIDTH 5 0
BBX 2 1 1 5
BITMAP
c0
ENDCHAR
STARTCHAR a
ENCODING 97
SWIDTH 543 0
DWIDTH 4 0
BBX 4 4 0 0
BITMAP
e0
60
a0
d0
ENDCHAR
STARTCHAR b
ENCODING 98
SWIDTH 611 0
DWIDTH 5 0
BBX 5 6 0 0
BITMAP
c0
40
78
48
48
70
ENDCHAR
STARTCHAR c
ENCODING 99
SWIDTH 509 0
DWIDTH 4 0
BBX 3 4 1 0
BITMAP
60
a0
80
60
ENDCHAR
STARTCHAR d
ENCODING 100
SWIDTH 642 0
DWIDTH 5 0
BBX 5 6 0 0
BITMAP
30
10
70
90
90
f8
ENDCHAR
STARTCHAR e
ENCODING 101
SWIDTH 530 0
DWIDTH 4 0
BBX 3 4 1 0
BITMAP
60
e0
80
60
ENDCHAR
STARTCHAR f
ENCODING 102
SWIDTH 404 0
DWIDTH 3 0
BBX 3 6 0 0
BITMAP
60
60
c0
40
40
c0
ENDCHAR
STARTCHAR g
ENCODING 103
SWIDTH 571 0
DWIDTH 5 0
BBX 4 6 0 -2
BITMAP
f0
a0
e0
f0
90
e0
ENDCHAR
STARTCHAR h
ENCODING 104
SWIDTH 633 0
DWIDTH 5 0
BBX 5 6 0 0
BITMAP
c0
40
70
50
50
f8
ENDCHAR
STARTCHAR i
ENCODING 105
SWIDTH 307 0
DWIDTH 2 0
BBX 3 6 0 0
BITMAP
40
00
c0
40
40
e0
ENDCHAR
STARTCHAR j
ENCODING 106
SWIDTH 346 0
DWIDTH 3 0
BBX 2 8 0 -2
BITMAP
40
00
40
40
40
40
c0
c0
ENDCHAR
STARTCHAR k
ENCODING 107
SWIDTH 599 0
DWIDTH 5 0
BBX 5 6 0 0
BITMAP
c0
40
58
70
50
f8
ENDCHAR
STARTCHAR l
ENCODING 108
SWIDTH 313 0
DWIDTH 3 0
BBX 3 6 0 0
BITMAP
c0
40
40
40
40
e0
ENDCHAR
STARTCHAR m
ENCODING 109
SWIDTH 946 0
DWIDTH 8 0
BBX 7 4 0 0
BITMAP
fc
54
54
fe
ENDCHAR
STARTCHAR n
ENCODING 110
SWIDTH 633 0
DWIDTH 5 0
BBX 5 4 0 0
BITMAP
f0
50
50
f8
ENDCHAR
STARTCHAR o
ENCODING 111
SWIDTH 602 0
DWIDTH 5 0
BBX 4 4 0 0
BITMAP
60
90
90
60
ENDCHAR
STARTCHAR p
ENCODING 112
SWIDTH 642 0
DWIDTH 5 0
BBX 5 6 0 -2
BITMAP
f8
48
48
70
40
e0
ENDCHAR
STARTCHAR q
ENCODING 113
SWIDTH 617 0
DWIDTH 5 0
BBX 5 6 0 -2
BITMAP
70
90
90
f0
10
38
ENDCHAR
STARTCHAR r
ENCODING 114
SWIDTH 440 0
DWIDTH 4 0
BBX 4 4 0 0
BITMAP
f0
50
40
e0
ENDCHAR
STARTCHAR s
ENCODING 115
SWIDTH 504 0
DWIDTH 4 0
BBX 3 4 1 0
BITMAP
e0
e0
e0
e0
ENDCHAR
STARTCHAR t
ENCODING 116
SWIDTH 392 0
DWIDTH 3 0
BBX 3 6 0 0
BITMAP
40
40
e0
40
40
60
ENDCHAR
STARTCHAR u
ENCODING 117
SWIDTH 633 0
DWIDTH 5 0
BBX 5 4 0 0
BITMAP
f0
50
50
78
ENDCHAR
STARTCHAR v
ENCODING 118
SWIDTH 545 0
DWIDTH 4 0
BBX 4 4 0 0
BITMAP
d0
90
60
60
ENDCHAR
STARTCHAR w
ENCODING 119
SWIDTH 795 0
DWIDTH 6 0
BBX 6 4 0 0
BITMAP
d4
b4
78
48
ENDCHAR
STARTCHAR x
ENCODING 120
SWIDTH 557 0
DWIDTH 4 0
BBX 4 4 0 0
BITMAP
d0
70
e0
b0
ENDCHAR
STARTCHAR y
ENCODING 121
SWIDTH 551 0
DWIDTH 4 0
BBX 4 6 0 -2
BITMAP
d0
90
70
60
20
40
ENDCHAR
STARTCHAR z
ENCODING 122
SWIDTH 595 0
DWIDTH 5 0
BBX 4 4 0 0
BITMAP
f0
a0
50
f0
ENDCHAR
STARTCHAR braceleft
ENCODING 123
SWIDTH 343 0
DWIDTH 3 0
BBX 3 8 0 -2
BITMAP
60
40
40
40
c0
40
40
60
ENDCHAR
STARTCHAR bar
ENCODING 124
SWIDTH 241 0
DWIDTH 2 0
BBX 1 8 0 -2
BITMAP
80
80
80
80
80
80
80
80
ENDCHAR
STARTCHAR braceright
ENCODING 125
SWIDTH 343 0
DWIDTH 3 0
BBX 3 8 0 -2
BITMAP
c0
40
40
40
60
40
40
c0
ENDCHAR
STARTCHAR asciitilde
ENCODING 126
SWIDTH 608 0
DWIDTH 5 0
BBX 5 2 0 1
BITMAP
e8
b8
ENDCHAR
STARTCHAR nobreakspace
ENCODING 160
SWIDTH 333 0
DWIDTH 2 0
BBX 1 1 0 0
BITMAP
00
ENDCHAR
STARTCHAR Aogonek
ENCODING 161
SWIDTH 744 0
DWIDTH 6 0
BBX 6 8 0 -2
BITMAP
20
30
50
78
88
cc
20
20
ENDCHAR
STARTCHAR breve
ENCODING 162
SWIDTH 602 0
DWIDTH 5 0
BBX 3 1 1 5
BITMAP
e0
ENDCHAR
STARTCHAR Lstroke
ENCODING 163
SWIDTH 557 0
DWIDTH 4 0
BBX 4 6 0 0
BITMAP
e0
40
60
c0
50
f0
ENDCHAR
STARTCHAR currency
ENCODING 164
SWIDTH 608 0
DWIDTH 5 0
BBX 6 6 0 0
BITMAP
84
78
48
48
78
84
ENDCHAR
STARTCHAR Lcaron
ENCODING 165
SWIDTH 625 0
DWIDTH 5 0
BBX 5 6 0 0
BITMAP
e8
48
40
40
50
f0
ENDCHAR
STARTCHAR Sacute
ENCODING 166
SWIDTH 542 0
DWIDTH 4 0
BBX 3 8 1 0
BITMAP
60
00
e0
a0
c0
60
a0
e0
ENDCHAR
STARTCHAR section
ENCODING 167
SWIDTH 608 0
DWIDTH 5 0
BBX 3 8 1 -2
BITMAP
e0
a0
80
e0
e0
40
a0
e0
ENDCHAR
STARTCHAR diaeresis
ENCODING 168
SWIDTH 602 0
DWIDTH 5 0
BBX 2 1 1 5
BITMAP
c0
ENDCHAR
STARTCHAR Scaron
ENCODING 169
SWIDTH 542 0
DWIDTH 4 0
BBX 3 8 1 0
BITMAP
e0
00
e0
a0
c0
60
a0
e0
ENDCHAR
STARTCHAR Scedilla
ENCODING 170
SWIDTH 542 0
DWIDTH 4 0
BBX 3 8 1 -2
BITMAP
e0
a0
c0
60
a0
e0
40
40
ENDCHAR
STARTCHAR Tcaron
ENCODING 171
SWIDTH 663 0
DWIDTH 5 0
BBX 5 8 0 0
BITMAP
70
00
f8
20
20
20
20
70
ENDCHAR
STARTCHAR Zacute
ENCODING 172
SWIDTH 633 0
DWIDTH 5 0
BBX 4 8 0 0
BITMAP
60
00
f0
a0
20
40
50
f0
ENDCHAR
STARTCHAR hyphen
ENCODING 173
SWIDTH 325 0
DWIDTH 3 0
BBX 2 1 0 2
BITMAP
c0
ENDCHAR
STARTCHAR Zcaron
ENCODING 174
SWIDTH 633 0
DWIDTH 5 0
BBX 4 8 0 0
BITMAP
e0
00
f0
a0
20
40
50
f0
ENDCHAR
STARTCHAR Zabovedot
ENCODING 175
SWIDTH 633 0
DWIDTH 5 0
BBX 4 8 0 0
BITMAP
40
00
f0
a0
20
40
50
f0
ENDCHAR
STARTCHAR degree
ENCODING 176
SWIDTH 259 0
DWIDTH 2 0
BBX 1 2 1 4
BITMAP
80
80
ENDCHAR
STARTCHAR aogonek
ENCODING 177
SWIDTH 543 0
DWIDTH 4 0
BBX 4 6 0 -2
BITMAP
e0
60
a0
d0
40
40
ENDCHAR
STARTCHAR ogonek
ENCODING 178
SWIDTH 602 0
DWIDTH 5 0
BBX 1 2 2 -3
BITMAP
80
80
ENDCHAR
STARTCHAR lstroke
ENCODING 179
SWIDTH 313 0
DWIDTH 3 0
BBX 3 6 0 0
BITMAP
c0
40
60
c0
40
e0
ENDCHAR
STARTCHAR acute
ENCODING 180
SWIDTH 602 0
DWIDTH 5 0
BBX 2 1 2 5
BITMAP
c0
ENDCHAR
STARTCHAR lcaron
ENCODING 181
SWIDTH 500 0
DWIDTH 4 0
BBX 4 6 0 0
BITMAP
d0
50
40
40
40
e0
ENDCHAR
STARTCHAR sacute
ENCODING 182
SWIDTH 504 0
DWIDTH 4 0
BBX 3 6 1 0
BITMAP
60
00
e0
e0
e0
e0
ENDCHAR
STARTCHAR caron
ENCODING 183
SWIDTH 602 0
DWIDTH 5 0
BBX 3 1 1 5
BITMAP
e0
ENDCHAR
STARTCHAR cedilla
ENCODING 184
SWIDTH 602 0
DWIDTH 5 0
BBX 1 2 2 -2
BITMAP
80
80
ENDCHAR
STARTCHAR scaron
ENCODING 185
SWIDTH 504 0
DWIDTH 4 0
BBX 3 6 1 0
BITMAP
e0
00
e0
e0
e0
e0
ENDCHAR
STARTCHAR scedilla
ENCODING 186
SWIDTH 504 0
DWIDTH 4 0
BBX 3 6 1 -2
BITMAP
e0
e0
e0
e0
40
40
ENDCHAR
STARTCHAR tcaron
ENCODING 187
SWIDTH 500 0
DWIDTH 4 0
BBX 4 7 0 0
BITMAP
10
50
40
e0
40
40
60
ENDCHAR
STARTCHAR zacute
ENCODING 188
SWIDTH 595 0
DWIDTH 5 0
BBX 4 6 0 0
BITMAP
60
00
f0
a0
50
f0
ENDCHAR
STARTCHAR doubleacute
ENCODING 189
SWIDTH 602 0
DWIDTH 5 0
BBX 2 1 2 5
BITMAP
c0
ENDCHAR
STARTCHAR zcaron
ENCODING 190
SWIDTH 595 0
DWIDTH 5 0
BBX 4 6 0 0
BITMAP
e0
00
f0
a0
50
f0
ENDCHAR
STARTCHAR zabovedot
ENCODING 191
SWIDTH 595 0
DWIDTH 5 0
BBX 4 6 0 0
BITMAP
40
00
f0
a0
50
f0
ENDCHAR
STARTCHAR Racute
ENCODING 192
SWIDTH 679 0
DWIDTH 5 0
BBX 5 8 0 0
BITMAP
60
00
f0
50
50
60
50
f8
ENDCHAR
STARTCHAR Aacute
ENCODING 193
SWIDTH 744 0
DWIDTH 6 0
BBX 6 7 0 0
BITMAP
30
20
30
50
78
88
cc
ENDCHAR
STARTCHAR Acircumflex
ENCODING 194
SWIDTH 744 0
DWIDTH 6 0
BBX 6 7 0 0
BITMAP
70
20
30
50
78
88
cc
ENDCHAR
STARTCHAR Abreve
ENCODING 195
SWIDTH 744 0
DWIDTH 6 0
BBX 6 8 0 0
BITMAP
70
00
20
30
50
78
88
cc
ENDCHAR
STARTCHAR Adiaeresis
ENCODING 196
SWIDTH 744 0
DWIDTH 6 0
BBX 6 7 0 0
BITMAP
30
20
30
50
78
88
cc
ENDCHAR
STARTCHAR Lacute
ENCODING 197
SWIDTH 557 0
DWIDTH 4 0
BBX 4 8 0 0
BITMAP
60
00
e0
40
40
40
50
f0
ENDCHAR
STARTCHAR Cacute
ENCODING 198
SWIDTH 695 0
DWIDTH 6 0
BBX 5 8 0 0
BITMAP
30
00
78
c8
80
80
c0
78
ENDCHAR
STARTCHAR Ccedilla
ENCODING 199
SWIDTH 695 0
DWIDTH 6 0
BBX 5 8 0 -2
BITMAP
78
c8
80
80
c0
78
20
20
ENDCHAR
STARTCHAR Ccaron
ENCODING 200
SWIDTH 695 0
DWIDTH 6 0
BBX 5 8 0 0
BITMAP
70
00
78
c8
80
80
c0
78
ENDCHAR
STARTCHAR Eacute
ENCODING 201
SWIDTH 566 0
DWIDTH 5 0
BBX 4 7 0 0
BITMAP
40
f0
50
60
40
50
f0
ENDCHAR
STARTCHAR Eogonek
ENCODING 202
SWIDTH 566 0
DWIDTH 5 0
BBX 4 8 0 -2
BITMAP
f0
50
60
40
50
f0
40
40
ENDCHAR
STARTCHAR Ediaeresis
ENCODING 203
SWIDTH 566 0
DWIDTH 5 0
BBX 4 7 0 0
BITMAP
60
f0
50
60
40
50
f0
ENDCHAR
STARTCHAR Ecaron
ENCODING 204
SWIDTH 566 0
DWIDTH 5 0
BBX 4 8 0 0
BITMAP
e0
00
f0
50
60
40
50
f0
ENDCHAR
STARTCHAR Iacute
ENCODING 205
SWIDTH 325 0
DWIDTH 3 0
BBX 3 7 0 0
BITMAP
40
e0
40
40
40
40
e0
ENDCHAR
STARTCHAR Icircumflex
ENCODING 206
SWIDTH 325 0
DWIDTH 3 0
BBX 3 7 0 0
BITMAP
e0
e0
40
40
40
40
e0
ENDCHAR
STARTCHAR Dcaron
ENCODING 207
SWIDTH 768 0
DWIDTH 6 0
BBX 6 8 0 0
BITMAP
70
00
f8
44
44
44
44
f8
ENDCHAR
STARTCHAR Dstroke
ENCODING 208
SWIDTH 768 0
DWIDTH 6 0
BBX 6 6 0 0
BITMAP
f8
44
e4
44
44
f8
ENDCHAR
STARTCHAR Nacute
ENCODING 209
SWIDTH 751 0
DWIDTH 6 0
BBX 6 8 0 0
BITMAP
30
00
dc
68
68
58
58
e8
ENDCHAR
STARTCHAR Ncaron
ENCODING 210
SWIDTH 751 0
DWIDTH 6 0
BBX 6 8 0 0
BITMAP
70
00
dc
68
68
58
58
e8
ENDCHAR
STARTCHAR Oacute
ENCODING 211
SWIDTH 777 0
DWIDTH 6 0
BBX 5 7 1 0
BITMAP
20
70
d8
88
88
d8
70
ENDCHAR
STARTCHAR Ocircumflex
ENCODING 212
SWIDTH 777 0
DWIDTH 6 0
BBX 5 7 1 0
BITMAP
70
70
d8
88
88
d8
70
ENDCHAR
STARTCHAR Odoubleacute
ENCODING 213
SWIDTH 777 0
DWIDTH 6 0
BBX 5 8 1 0
BITMAP
30
00
70
d8
88
88
d8
70
ENDCHAR
STARTCHAR Odiaeresis
ENCODING 214
SWIDTH 777 0
DWIDTH 6 0
BBX 5 7 1 0
BITMAP
60
70
d8
88
88
d8
70
ENDCHAR
STARTCHAR multiply
ENCODING 215
SWIDTH 608 0
DWIDTH 5 0
BBX 5 5 0 0
BITMAP
88
50
20
50
88
ENDCHAR
STARTCHAR Rcaron
ENCODING 216
SWIDTH 679 0
DWIDTH 5 0
BBX 5 8 0 0
BITMAP
e0
00
f0
50
50
60
50
f8
ENDCHAR
STARTCHAR Uring
ENCODING 217
SWIDTH 719 0
DWIDTH 6 0
BBX 6 10 0 0
BITMAP
20
50
20
00
fc
48
48
48
48
78
ENDCHAR
STARTCHAR Uacute
ENCODING 218
SWIDTH 719 0
DWIDTH 6 0
BBX 6 7 0 0
BITMAP
20
fc
48
48
48
48
78
ENDCHAR
STARTCHAR Udoubleacute
ENCODING 219
SWIDTH 719 0
DWIDTH 6 0
BBX 6 8 0 0
BITMAP
30
00
fc
48
48
48
48
78
ENDCHAR
STARTCHAR Udiaeresis
ENCODING 220
SWIDTH 719 0
DWIDTH 6 0
BBX 6 7 0 0
BITMAP
30
fc
48
48
48
48
78
ENDCHAR
STARTCHAR Yacute
ENCODING 221
SWIDTH 678 0
DWIDTH 5 0
BBX 5 7 0 0
BITMAP
30
c8
58
70
20
20
70
ENDCHAR
STARTCHAR Tcedilla
ENCODING 222
SWIDTH 663 0
DWIDTH 5 0
BBX 5 8 0 -2
BITMAP
f8
20
20
20
20
70
20
20
ENDCHAR
STARTCHAR ssharp
ENCODING 223
SWIDTH 614 0
DWIDTH 5 0
BBX 5 6 0 0
BITMAP
70
50
60
70
68
f8
ENDCHAR
STARTCHAR racute
ENCODING 224
SWIDTH 440 0
DWIDTH 4 0
BBX 4 6 0 0
BITMAP
60
00
f0
50
40
e0
ENDCHAR
STARTCHAR aacute
ENCODING 225
SWIDTH 543 0
DWIDTH 4 0
BBX 4 5 0 0
BITMAP
40
e0
60
a0
d0
ENDCHAR
STARTCHAR acircumflex
ENCODING 226
SWIDTH 543 0
DWIDTH 4 0
BBX 4 5 0 0
BITMAP
e0
e0
60
a0
d0
ENDCHAR
STARTCHAR abreve
ENCODING 227
SWIDTH 543 0
DWIDTH 4 0
BBX 4 6 0 0
BITMAP
e0
00
e0
60
a0
d0
ENDCHAR
STARTCHAR adiaeresis
ENCODING 228
SWIDTH 543 0
DWIDTH 4 0
BBX 4 5 0 0
BITMAP
60
e0
60
a0
d0
ENDCHAR
STARTCHAR lacute
ENCODING 229
SWIDTH 313 0
DWIDTH 3 0
BBX 3 8 0 0
BITMAP
c0
00
c0
40
40
40
40
e0
ENDCHAR
STARTCHAR cacute
ENCODING 230
SWIDTH 509 0
DWIDTH 4 0
BBX 3 6 1 0
BITMAP
60
00
60
a0
80
60
ENDCHAR
STARTCHAR ccedilla
ENCODING 231
SWIDTH 509 0
DWIDTH 4 0
BBX 3 6 1 -2
BITMAP
60
a0
80
60
40
40
ENDCHAR
STARTCHAR ccaron
ENCODING 232
SWIDTH 509 0
DWIDTH 4 0
BBX 3 6 1 0
BITMAP
e0
00
60
a0
80
60
ENDCHAR
STARTCHAR eacute
ENCODING 233
SWIDTH 530 0
DWIDTH 4 0
BBX 3 5 1 0
BITMAP
60
60
e0
80
60
ENDCHAR
STARTCHAR eogonek
ENCODING 234
SWIDTH 530 0
DWIDTH 4 0
BBX 3 6 1 -2
BITMAP
60
e0
80
60
40
40
ENDCHAR
STARTCHAR ediaeresis
ENCODING 235
SWIDTH 530 0
DWIDTH 4 0
BBX 3 5 1 0
BITMAP
60
60
e0
80
60
ENDCHAR
STARTCHAR ecaron
ENCODING 236
SWIDTH 530 0
DWIDTH 4 0
BBX 3 6 1 0
BITMAP
e0
00
60
e0
80
60
ENDCHAR
STARTCHAR iacute
ENCODING 237
SWIDTH 307 0
DWIDTH 2 0
BBX 3 5 0 0
BITMAP
60
c0
40
40
e0
ENDCHAR
STARTCHAR icircumflex
ENCODING 238
SWIDTH 307 0
DWIDTH 2 0
BBX 3 5 0 0
BITMAP
e0
c0
40
40
e0
ENDCHAR
STARTCHAR dcaron
ENCODING 239
SWIDTH 750 0
DWIDTH 6 0
BBX 6 6 0 0
BITMAP
34
14
70
90
90
f8
ENDCHAR
STARTCHAR dstroke
ENCODING 240
SWIDTH 642 0
DWIDTH 5 0
BBX 5 6 0 0
BITMAP
38
10
70
90
90
f8
ENDCHAR
STARTCHAR nacute
ENCODING 241
SWIDTH 633 0
DWIDTH 5 0
BBX 5 6 0 0
BITMAP
60
00
f0
50
50
f8
ENDCHAR
STARTCHAR ncaron
ENCODING 242
SWIDTH 633 0
DWIDTH 5 0
BBX 5 6 0 0
BITMAP
e0
00
f0
50
50
f8
ENDCHAR
STARTCHAR oacute
ENCODING 243
SWIDTH 602 0
DWIDTH 5 0
BBX 4 5 0 0
BITMAP
60
60
90
90
60
ENDCHAR
STARTCHAR ocircumflex
ENCODING 244
SWIDTH 602 0
DWIDTH 5 0
BBX 4 5 0 0
BITMAP
e0
60
90
90
60
ENDCHAR
STARTCHAR odoubleacute
ENCODING 245
SWIDTH 602 0
DWIDTH 5 0
BBX 4 6 0 0
BITMAP
60
00
60
90
90
60
ENDCHAR
STARTCHAR odiaeresis
ENCODING 246
SWIDTH 602 0
DWIDTH 5 0
BBX 4 5 0 0
BITMAP
60
60
90
90
60
ENDCHAR
STARTCHAR division
ENCODING 247
SWIDTH 608 0
DWIDTH 5 0
BBX 5 4 0 0
BITMAP
20
00
f8
20
ENDCHAR
STARTCHAR rcaron
ENCODING 248
SWIDTH 440 0
DWIDTH 4 0
BBX 4 6 0 0
BITMAP
e0
00
f0
50
40
e0
ENDCHAR
STARTCHAR uring
ENCODING 249
SWIDTH 633 0
DWIDTH 5 0
BBX 5 8 0 0
BITMAP
40
a0
40
00
f0
50
50
78
ENDCHAR
STARTCHAR uacute
ENCODING 250
SWIDTH 633 0
DWIDTH 5 0
BBX 5 5 0 0
BITMAP
30
f0
50
50
78
ENDCHAR
STARTCHAR udoubleacute
ENCODING 251
SWIDTH 633 0
DWIDTH 5 0
BBX 5 6 0 0
BITMAP
60
00
f0
50
50
78
ENDCHAR
STARTCHAR udiaeresis
ENCODING 252
SWIDTH 633 0
DWIDTH 5 0
BBX 5 5 0 0
BITMAP
30
f0
50
50
78
ENDCHAR
STARTCHAR yacute
ENCODING 253
SWIDTH 551 0
DWIDTH 4 0
BBX 4 7 0 -2
BITMAP
60
d0
90
70
60
20
40
ENDCHAR
STARTCHAR tcedilla
ENCODING 254
SWIDTH 392 0
DWIDTH 3 0
BBX 3 8 0 -2
BITMAP
40
40
e0
40
40
60
40
40
ENDCHAR
STARTCHAR abovedot
ENCODING 255
SWIDTH 602 0
DWIDTH 5 0
BBX 1 1 2 5
BITMAP
80
ENDCHAR
ENDFONT
